<svg width="32" height="33" viewBox="0 0 32 33" fill="none" xmlns="http://www.w3.org/2000/svg">
<path d="M4.57143 0.285645C2.05 0.285645 0 2.33564 0 4.85707V27.7142C0 30.2356 2.05 32.2856 4.57143 32.2856H27.4286C29.95 32.2856 32 30.2356 32 27.7142V4.85707C32 2.33564 29.95 0.285645 27.4286 0.285645H4.57143ZM25.7929 6.28564L18.3786 14.7571L27.1 26.2856H20.2714L14.9286 19.2928L8.80714 26.2856H5.41429L13.3429 17.2214L4.97857 6.28564H11.9786L16.8143 12.6785L22.4 6.28564H25.7929ZM23.0929 24.2571L10.9571 8.20707H8.93571L21.2071 24.2571H23.0857H23.0929Z" fill="white"/>
</svg>
